<svg height="512" viewBox="0 0 512 512" width="512" xmlns="http://www.w3.org/2000/svg"><path d="m80 32h80a16 16 0 0 1 16 16v232a0 0 0 0 1 0 0h-112a0 0 0 0 1 0 0v-232a16 16 0 0 1 16-16z" fill="#d7322d" transform="matrix(-1 0 0 -1 240 312)"/><path d="m64 32h56v232h-56z" fill="#f04b37" transform="matrix(-1 0 0 -1 184 296)"/><path d="m160 312h24a0 0 0 0 1 0 0v24a0 0 0 0 1 0 0 24 24 0 0 1 -24-24 0 0 0 0 1 0 0z" fill="#d2733c" transform="matrix(-1 0 0 -1 344 648)"/><path d="m64 312h96a0 0 0 0 1 0 0v80a16 16 0 0 1 -16 16h-80a0 0 0 0 1 0 0v-96a0 0 0 0 1 0 0z" fill="#f0915a" transform="matrix(-1 0 0 -1 224 720)"/><path d="m80 280h80v32h-80z" fill="#f0915a"/><path d="m136 408v44a12 12 0 0 0 12 12 12 12 0 0 0 12-12v-44z" fill="#d2733c"/><path d="m112 408v44a12 12 0 0 0 12 12 12 12 0 0 0 12-12v-44z" fill="#d2733c"/><path d="m88 408v44a12 12 0 0 0 12 12 12 12 0 0 0 12-12v-44z" fill="#d2733c"/><path d="m64 408v44a12 12 0 0 0 12 12 12 12 0 0 0 12-12v-44z" fill="#d2733c"/><path d="m80 280h40a0 0 0 0 1 0 0v16a16 16 0 0 1 -16 16h-24a0 0 0 0 1 0 0v-32a0 0 0 0 1 0 0z" fill="#fab991"/><path d="m300-4h112a0 0 0 0 1 0 0v232a16 16 0 0 1 -16 16h-80a16 16 0 0 1 -16-16v-232a0 0 0 0 1 0 0z" fill="#55525b" transform="matrix(0 1 -1 0 476 -236)"/><path d="m336 32h56v232h-56z" fill="#353744" transform="matrix(0 1 -1 0 512 -216)"/><path d="m176 160h24a0 0 0 0 1 0 0v24a0 0 0 0 1 0 0 24 24 0 0 1 -24-24 0 0 0 0 1 0 0z" fill="#d2733c" transform="matrix(0 -1 1 0 16 360)"/><path d="m104 64h96a0 0 0 0 1 0 0v80a16 16 0 0 1 -16 16h-80a0 0 0 0 1 0 0v-96a0 0 0 0 1 0 0z" fill="#f0915a" transform="matrix(0 -1 1 0 40 264)"/><path d="m176 104h80v32h-80z" fill="#f0915a" transform="matrix(0 1 -1 0 336 -96)"/><g fill="#fab991"><path d="m104 136h-44a12 12 0 0 0 -12 12 12 12 0 0 0 12 12h44z"/><path d="m104 112h-44a12 12 0 0 0 -12 12 12 12 0 0 0 12 12h44z"/><path d="m104 88h-44a12 12 0 0 0 -12 12 12 12 0 0 0 12 12h44z"/><path d="m104 64h-44a12 12 0 0 0 -12 12 12 12 0 0 0 12 12h44z"/><path d="m196 84h40a0 0 0 0 1 0 0v16a16 16 0 0 1 -16 16h-24a0 0 0 0 1 0 0v-32a0 0 0 0 1 0 0z" transform="matrix(0 1 -1 0 316 -116)"/></g><path d="m352 232h80a16 16 0 0 1 16 16v232a0 0 0 0 1 0 0h-112a0 0 0 0 1 0 0v-232a16 16 0 0 1 16-16z" fill="#f04b37"/><path d="m392 248h56v232h-56z" fill="#d7322d"/><path d="m328 176h24a0 0 0 0 1 0 0v24a0 0 0 0 1 0 0 24 24 0 0 1 -24-24 0 0 0 0 1 0 0z" fill="#d2733c"/><path d="m352 104h96a0 0 0 0 1 0 0v80a16 16 0 0 1 -16 16h-80a0 0 0 0 1 0 0v-96a0 0 0 0 1 0 0z" fill="#f0915a"/><path d="m352 200h80v32h-80z" fill="#f0915a"/><path d="m376 104v-44a12 12 0 0 0 -12-12 12 12 0 0 0 -12 12v44z" fill="#fab991"/><path d="m400 104v-44a12 12 0 0 0 -12-12 12 12 0 0 0 -12 12v44z" fill="#fab991"/><path d="m424 104v-44a12 12 0 0 0 -12-12 12 12 0 0 0 -12 12v44z" fill="#fab991"/><path d="m448 104v-44a12 12 0 0 0 -12-12 12 12 0 0 0 -12 12v44z" fill="#fab991"/><path d="m352 200h24a16 16 0 0 1 16 16v16a0 0 0 0 1 0 0h-40a0 0 0 0 1 0 0v-32a0 0 0 0 1 0 0z" fill="#fab991"/><circle cx="256" cy="256" fill="#fabe19" r="80"/><rect fill="#353744" height="16" rx="8" width="128" x="192" y="232"/><path d="m200 232h56a0 0 0 0 1 0 0v16a0 0 0 0 1 0 0h-56a8 8 0 0 1 -8-8 8 8 0 0 1 8-8z" fill="#55525b"/><path d="m288 280-32 16-32-16v-32h64z" fill="#353744"/><path d="m256 296-32-16v-24h32z" fill="#55525b"/><path d="m304 248h8v32h-8z" fill="#353744"/><rect fill="#f5871e" height="16" rx="4" width="18.667" x="298.667" y="280"/><path d="m312 328h24a0 0 0 0 1 0 0v24a0 0 0 0 1 0 0 24 24 0 0 1 -24-24 0 0 0 0 1 0 0z" fill="#fab991" transform="matrix(0 1 -1 0 664 16)"/><path d="m312 352h96a0 0 0 0 1 0 0v80a16 16 0 0 1 -16 16h-80a0 0 0 0 1 0 0v-96a0 0 0 0 1 0 0z" fill="#f0915a" transform="matrix(0 1 -1 0 760 40)"/><path d="m256 376h80v32h-80z" fill="#f0915a" transform="matrix(0 1 -1 0 688 96)"/><path d="m164 332h112a0 0 0 0 1 0 0v104a16 16 0 0 1 -16 16h-80a16 16 0 0 1 -16-16v-104a0 0 0 0 1 0 0z" fill="#353744" transform="matrix(0 -1 1 0 -172 612)"/><path d="m184 312h56v104h-56z" fill="#55525b" transform="matrix(0 -1 1 0 -152 576)"/><path d="m32 336h32v112h-32z" fill="#353744"/><path d="m32 336h32v56h-32z" fill="#55525b"/><path d="m408 376h44a12 12 0 0 0 12-12 12 12 0 0 0 -12-12h-44z" fill="#d2733c"/><path d="m408 400h44a12 12 0 0 0 12-12 12 12 0 0 0 -12-12h-44z" fill="#d2733c"/><path d="m408 424h44a12 12 0 0 0 12-12 12 12 0 0 0 -12-12h-44z" fill="#d2733c"/><path d="m408 448h44a12 12 0 0 0 12-12 12 12 0 0 0 -12-12h-44z" fill="#d2733c"/><path d="m276 356h24a16 16 0 0 1 16 16v16a0 0 0 0 1 0 0h-40a0 0 0 0 1 0 0v-32a0 0 0 0 1 0 0z" fill="#fab991" transform="matrix(0 1 -1 0 668 76)"/></svg>